<mxfile host="app.diagrams.net" agent="Mozilla/5.0 (Windows NT 10.0; Win64; x64) AppleWebKit/537.36 (KHTML, like Gecko) Chrome/131.0.0.0 Safari/537.36 AVG/131.0.0.0" version="26.0.10">
  <diagram id="R2lEEEUBdFMjLlhIrx00" name="Page-1">
    <mxGraphModel dx="1050" dy="618" grid="1" gridSize="10" guides="1" tooltips="1" connect="1" arrows="1" fold="1" page="1" pageScale="1" pageWidth="850" pageHeight="1100" math="0" shadow="0" extFonts="Permanent Marker^https://fonts.googleapis.com/css?family=Permanent+Marker">
      <root>
        <mxCell id="0" />
        <mxCell id="1" parent="0" />
        <mxCell id="YcTgUgxdSJ3doD2HOIak-1" value="" style="rounded=0;whiteSpace=wrap;html=1;" vertex="1" parent="1">
          <mxGeometry x="80" y="120" width="270" height="90" as="geometry" />
        </mxCell>
        <mxCell id="YcTgUgxdSJ3doD2HOIak-2" value="" style="rounded=0;whiteSpace=wrap;html=1;" vertex="1" parent="1">
          <mxGeometry x="490" y="120" width="270" height="90" as="geometry" />
        </mxCell>
        <mxCell id="YcTgUgxdSJ3doD2HOIak-3" value="" style="rounded=0;whiteSpace=wrap;html=1;" vertex="1" parent="1">
          <mxGeometry x="85" y="350" width="270" height="90" as="geometry" />
        </mxCell>
        <mxCell id="YcTgUgxdSJ3doD2HOIak-4" value="" style="rounded=0;whiteSpace=wrap;html=1;" vertex="1" parent="1">
          <mxGeometry x="495" y="350" width="270" height="90" as="geometry" />
        </mxCell>
        <mxCell id="YcTgUgxdSJ3doD2HOIak-5" value="" style="ellipse;whiteSpace=wrap;html=1;" vertex="1" parent="1">
          <mxGeometry x="10" y="40" width="90" height="50" as="geometry" />
        </mxCell>
        <mxCell id="YcTgUgxdSJ3doD2HOIak-6" value="" style="ellipse;whiteSpace=wrap;html=1;" vertex="1" parent="1">
          <mxGeometry x="120" y="40" width="90" height="50" as="geometry" />
        </mxCell>
        <mxCell id="YcTgUgxdSJ3doD2HOIak-7" value="" style="ellipse;whiteSpace=wrap;html=1;" vertex="1" parent="1">
          <mxGeometry x="530" y="280" width="90" height="50" as="geometry" />
        </mxCell>
        <mxCell id="YcTgUgxdSJ3doD2HOIak-8" value="" style="ellipse;whiteSpace=wrap;html=1;" vertex="1" parent="1">
          <mxGeometry x="640" y="280" width="90" height="50" as="geometry" />
        </mxCell>
        <mxCell id="YcTgUgxdSJ3doD2HOIak-11" value="" style="ellipse;whiteSpace=wrap;html=1;" vertex="1" parent="1">
          <mxGeometry x="230" y="40" width="90" height="50" as="geometry" />
        </mxCell>
        <mxCell id="YcTgUgxdSJ3doD2HOIak-12" value="" style="ellipse;whiteSpace=wrap;html=1;" vertex="1" parent="1">
          <mxGeometry x="340" y="40" width="90" height="50" as="geometry" />
        </mxCell>
        <mxCell id="YcTgUgxdSJ3doD2HOIak-13" value="" style="ellipse;whiteSpace=wrap;html=1;" vertex="1" parent="1">
          <mxGeometry x="10" y="280" width="90" height="50" as="geometry" />
        </mxCell>
        <mxCell id="YcTgUgxdSJ3doD2HOIak-14" value="" style="ellipse;whiteSpace=wrap;html=1;" vertex="1" parent="1">
          <mxGeometry x="120" y="280" width="90" height="50" as="geometry" />
        </mxCell>
        <mxCell id="YcTgUgxdSJ3doD2HOIak-15" value="" style="ellipse;whiteSpace=wrap;html=1;" vertex="1" parent="1">
          <mxGeometry x="230" y="280" width="90" height="50" as="geometry" />
        </mxCell>
        <mxCell id="YcTgUgxdSJ3doD2HOIak-16" value="" style="ellipse;whiteSpace=wrap;html=1;" vertex="1" parent="1">
          <mxGeometry x="340" y="280" width="90" height="50" as="geometry" />
        </mxCell>
        <mxCell id="YcTgUgxdSJ3doD2HOIak-17" value="" style="ellipse;whiteSpace=wrap;html=1;" vertex="1" parent="1">
          <mxGeometry x="470" y="40" width="90" height="50" as="geometry" />
        </mxCell>
        <mxCell id="YcTgUgxdSJ3doD2HOIak-18" value="" style="ellipse;whiteSpace=wrap;html=1;" vertex="1" parent="1">
          <mxGeometry x="580" y="40" width="90" height="50" as="geometry" />
        </mxCell>
        <mxCell id="YcTgUgxdSJ3doD2HOIak-19" value="" style="ellipse;whiteSpace=wrap;html=1;" vertex="1" parent="1">
          <mxGeometry x="690" y="40" width="90" height="50" as="geometry" />
        </mxCell>
      </root>
    </mxGraphModel>
  </diagram>
</mxfile>
